<svg width="151" height="82" viewBox="0 0 151 82" fill="none" xmlns="http://www.w3.org/2000/svg">
<g clip-path="url(#clip0)">
<path d="M65.9947 13.8072C64.398 14.036 64.398 14.036 64.1699 12.2816C63.9418 10.222 60.3683 10.3746 60.5204 13.1969C60.5964 13.9597 60.2162 16.0193 57.6311 19.1467H38.395C38.0908 19.1467 37.8628 18.9941 37.7867 18.689L36.114 13.4258C35.8859 12.663 35.2016 12.2053 34.4413 12.2053H33.681C33.681 12.2053 33.681 12.2053 33.6049 12.2053C32.2364 11.5188 29.8033 11.5951 28.6629 11.9002C27.9786 12.0527 26.9901 12.0527 26.0017 12.2053C26.0017 11.9002 26.0778 11.5951 26.0778 11.29C26.5339 9.53554 26.61 8.39135 27.8265 8.16252C28.7389 7.93368 31.1719 9.07786 32.9207 8.16252C34.6694 7.24717 34.4413 6.63693 34.2892 5.79786C34.1372 4.88252 31.476 5.41647 30.5637 4.196C29.8794 3.28066 29.4992 2.89926 27.6744 2.59414C26.0017 2.21275 28.967 -0.151902 28.1306 0.000656384C26.0778 0.458331 24.8612 2.21275 23.9489 3.66205C23.4166 4.42484 21.2117 7.32345 21.2117 7.32345C21.2117 7.32345 19.0068 10.756 14.5969 15.943C10.7193 20.5197 8.43828 22.9607 7.5259 24.1048C7.37383 24.2574 7.2978 24.41 7.22177 24.4862C6.61351 25.3253 4.78874 27.4611 1.51935 29.2918C-2.66242 31.5802 2.73587 31.1988 7.14573 27.8425C7.0697 28.9867 7.2978 30.1309 7.75399 31.5039C8.51431 33.7923 8.05812 34.4788 7.5259 35.623C7.0697 36.7672 7.5259 41.1913 8.13415 41.9541C8.74241 42.7169 11.3275 42.7169 11.0994 41.649C10.9473 41.1151 8.21019 41.2676 8.81844 37.2248C8.81844 37.0723 8.89448 36.9197 8.97051 36.7672C9.35067 35.7755 10.187 34.8602 11.1754 33.8686C11.1754 33.9448 11.1754 33.9448 11.1754 34.0211C11.2515 34.7076 11.0994 35.1653 10.9473 35.8518C10.6432 37.0723 11.9358 41.3439 12.6961 41.9541C12.9242 42.183 13.1523 42.1067 13.9126 42.183C14.9771 42.2593 15.8134 41.9541 15.5093 41.2676C15.2812 40.81 12.6201 41.3439 12.468 37.2248C12.392 34.7839 15.6613 32.1141 16.0415 28.3002C16.1175 27.7662 16.1175 27.3086 16.1175 27.0034C15.3572 27.5374 14.6729 28.1476 13.9886 28.8341C13.8366 28.9867 13.7605 29.063 13.6085 29.2155C13.7605 28.9867 13.8366 28.8341 13.9886 28.6053C14.5969 27.7662 15.3572 27.0034 16.1175 26.3169C17.182 25.4779 17.9423 25.0202 19.3109 23.876C19.9952 23.2658 20.7555 22.5793 21.3638 21.8927C22.3522 20.9011 23.1125 19.8332 23.7968 18.7653C22.9604 18.2314 22.4282 17.316 22.2761 16.3244C22.5803 17.0872 23.1885 18.0025 24.0249 18.3076C25.0893 18.3839 26.8381 17.2397 27.6744 15.7141C28.4348 14.3411 29.4232 13.8072 30.5637 13.6546C30.7157 14.036 31.0959 14.3411 31.5521 14.3411H33.757C34.0611 14.3411 34.2892 14.4937 34.3653 14.7988L39.6115 31.5039C38.0148 32.1141 36.8743 33.5634 36.8743 35.3941C36.8743 37.6825 38.6991 39.5132 40.9801 39.5132H41.2082C41.5123 41.0388 42.8809 42.183 44.4776 42.183C46.0742 42.183 47.4428 41.0388 47.7469 39.5132H52.2328C52.537 41.0388 53.9055 42.183 55.5022 42.183C57.0989 42.183 58.4675 41.0388 58.7716 39.5132H59.5319C60.1402 39.5132 60.5964 39.0555 60.5964 38.4453C60.5964 37.8351 60.1402 37.3774 59.5319 37.3774H58.5435C58.0113 36.3095 56.8708 35.5467 55.5783 35.5467C54.2857 35.5467 53.1452 36.3095 52.613 37.3774H47.5188C46.9866 36.3095 45.8461 35.5467 44.5536 35.5467C43.261 35.5467 42.1206 36.3095 41.5883 37.3774H41.0561C39.9916 37.3774 39.1553 36.5383 39.1553 35.4704C39.1553 34.4025 39.9916 33.5634 41.0561 33.5634C41.1321 33.5634 41.2082 33.5634 41.2842 33.5634C41.3602 33.5634 41.4363 33.5634 41.5883 33.5634H58.5435C59.3038 33.5634 60.0642 33.0295 60.2162 32.2667L63.1815 20.596C63.2575 20.2909 63.1815 19.9095 62.9534 19.6807C62.7253 19.3755 62.4212 19.223 62.117 19.223H61.6608C63.2575 17.6211 63.8658 17.3923 65.7666 17.1634C68.6558 16.7058 68.5037 13.4258 65.9947 13.8072ZM45.3899 39.5895C45.1618 39.8946 44.8577 40.0472 44.4776 40.0472C44.0974 40.0472 43.7933 39.8946 43.5652 39.5895C43.4131 39.3606 43.3371 39.1318 43.3371 38.903C43.3371 38.2927 43.8693 37.7588 44.4776 37.7588C45.0858 37.7588 45.618 38.2927 45.618 38.903C45.618 39.1318 45.542 39.3606 45.3899 39.5895ZM54.3617 38.8267C54.3617 38.2165 54.894 37.6825 55.5022 37.6825C56.1105 37.6825 56.6427 38.2165 56.6427 38.8267C56.6427 39.0555 56.5667 39.3606 56.4146 39.5132C56.1865 39.8183 55.8824 39.9709 55.5022 39.9709C55.1221 39.9709 54.8179 39.8183 54.5898 39.5132C54.5138 39.3606 54.3617 39.1318 54.3617 38.8267ZM57.6311 37.3774C58.0113 37.8351 58.1634 38.369 58.1634 38.903C58.1634 39.1318 58.1634 39.3606 58.0873 39.5132C57.9353 39.9709 57.7072 40.3523 57.403 40.6574C57.327 40.7337 57.251 40.7337 57.1749 40.6574C57.0989 40.5811 57.0989 40.5048 57.1749 40.4286C57.4791 40.1997 57.7072 39.8946 57.8592 39.5132C57.9353 39.2844 58.0113 39.0555 58.0113 38.903C58.0113 38.369 57.9353 37.8351 57.6311 37.3774C57.5551 37.3011 57.4791 37.2248 57.4791 37.2248C57.4791 37.2248 57.5551 37.3011 57.6311 37.3774ZM42.5767 37.0723C43.0329 36.6146 43.6412 36.3095 44.3255 36.3095C44.4015 36.3095 44.4776 36.3858 44.4776 36.462V36.5383C44.4776 36.6146 44.4015 36.6146 44.3255 36.6146C44.0214 36.6146 43.7172 36.6146 43.4891 36.6909C43.185 36.7672 42.8809 36.9197 42.6528 37.1486C42.5767 37.2248 42.5767 37.2248 42.5007 37.3011C42.2726 37.53 42.1206 37.7588 42.0445 38.0639C41.9685 38.2927 41.8925 38.5216 41.8925 38.8267C41.8925 38.5216 41.9685 38.2927 42.0445 37.9876C42.1206 37.7588 42.1966 37.53 42.3487 37.3774C42.3487 37.3011 42.4247 37.1486 42.5767 37.0723ZM39.5355 21.3588H55.7303C54.3617 22.8081 53.2213 23.7997 52.0808 24.4862H39.6115L38.9272 22.1979C38.7751 21.8165 39.0793 21.3588 39.5355 21.3588ZM59.9121 21.3588C60.3683 21.3588 60.6724 21.7402 60.5204 22.1979L59.9121 24.4862H56.7187C57.0989 24.0286 57.6311 23.4946 58.1634 22.8844C58.6956 22.3504 59.1518 21.8165 59.608 21.3588H59.9121ZM42.2726 31.3513C41.9685 31.3513 41.7404 31.1988 41.6644 30.8937L40.3718 26.6983H47.3668C46.9106 27.69 47.5949 28.9104 49.1155 28.6816C50.7122 28.4527 50.7122 28.4527 50.9403 30.2072C51.0163 30.7411 51.2444 31.1225 51.6246 31.3513H42.2726ZM58.3154 30.8174C58.2394 31.1225 58.0113 31.2751 57.7072 31.2751H53.5254C54.1336 30.97 54.5898 30.2834 54.5138 29.2155C54.5138 28.6816 54.2857 28.0714 55.1221 26.622H59.3799L58.3154 30.8174ZM61.2046 25.1727C61.2046 25.3253 61.0526 25.4016 60.8245 25.4016H59.76L56.0345 25.3253L49.9519 25.249H47.975L50.4081 25.1727L56.3386 25.0202L59.9121 24.9439H60.9005H60.9765C61.2046 24.8676 61.2807 25.0202 61.2046 25.1727ZM62.2691 19.6807C62.5732 19.6807 62.6493 19.8332 62.5732 19.9858C62.5732 20.1383 62.4212 20.2146 62.1931 20.2146L60.8245 20.1383L56.9468 20.062L52.2328 19.9095L57.0989 19.7569L61.2046 19.6807H62.2691ZM61.4327 14.4937C61.2807 14.8751 61.0526 15.3327 60.7485 15.7904C60.5204 16.0955 60.2923 16.4007 59.9121 16.7058C59.9121 16.7058 60.7485 15.7904 61.1286 14.2648C61.2046 13.9597 61.2807 13.6546 61.2807 13.2732C61.2807 13.1207 61.2807 13.0444 61.2807 12.8918C61.2807 12.663 61.2046 12.3579 61.4327 12.2816C61.6608 12.2816 61.6608 12.663 61.6608 12.8155C61.7369 12.9681 61.7369 13.6546 61.4327 14.4937Z" fill="#D3D800"/>
<path d="M82.571 42.1061H71.8504C70.6339 42.1061 70.1017 42.64 70.1017 43.8605V80.2456C70.1017 81.4661 70.6339 82 71.8504 82H76.9446C78.1611 82 78.6933 81.4661 78.6933 80.2456V66.8205H82.571C85.7643 66.8205 88.5015 65.7526 90.7064 63.5405C93.1395 61.0996 94.356 58.0484 94.356 54.3107C94.356 50.7256 93.2155 47.7507 90.9345 45.4624C88.6536 43.2503 85.9164 42.1061 82.571 42.1061ZM85.1561 56.5991C84.5478 57.5907 83.7115 58.1247 82.571 58.1247H78.6933V50.6493H82.571C83.4073 50.6493 84.0916 50.8782 84.6239 51.4121C85.3842 52.0986 85.7643 53.0903 85.7643 54.3107C85.7643 55.1498 85.5362 55.9126 85.1561 56.5991Z" fill="#00B1EB"/>
<path d="M119.142 42.1061H100.287C99.07 42.1061 98.5378 42.64 98.5378 43.8605V80.2456C98.5378 81.4661 99.07 82 100.287 82H119.142C120.359 82 120.891 81.4661 120.891 80.2456V75.1349C120.891 73.9144 120.359 73.3805 119.142 73.3805H107.053V66.2865H119.142C120.359 66.2865 120.891 65.7526 120.891 64.5321V59.4214C120.891 58.201 120.359 57.667 119.142 57.667H107.053V50.7256H119.142C120.359 50.7256 120.891 50.1917 120.891 48.9712V43.8605C120.891 42.64 120.283 42.1061 119.142 42.1061Z" fill="#00B1EB"/>
<path d="M149.251 42.1061H126.974C125.757 42.1061 125.225 42.64 125.225 43.8605V48.9712C125.225 50.1917 125.757 50.7256 126.974 50.7256H133.817V80.2456C133.817 81.4661 134.349 82 135.565 82H140.66C141.876 82 142.408 81.4661 142.408 80.2456V50.6493H149.327C150.544 50.6493 151.076 50.1154 151.076 48.8949V43.8605C151 42.64 150.392 42.1061 149.251 42.1061Z" fill="#00B1EB"/>
<path d="M16.3469 73.9907C19.6163 73.9907 22.4295 72.8465 24.7865 70.4819C27.1435 68.1172 28.284 65.2949 28.284 62.0149C28.284 58.7349 27.1435 55.9125 24.7865 53.5479C22.4295 51.1832 19.6923 50.0391 16.4229 50.0391C13.0015 50.0391 10.1883 51.1832 7.8313 53.5479C5.55033 55.9125 4.40985 58.7349 4.40985 62.0149C4.40985 65.2949 5.55033 68.1172 7.90733 70.4819C10.1883 72.8465 13.0015 73.9907 16.3469 73.9907ZM9.27591 54.9209C11.2527 52.9377 13.6097 51.946 16.2709 51.946C19.1601 51.946 21.5171 52.9377 23.4939 54.9209C25.4708 56.9042 26.3832 59.2688 26.3832 62.0149C26.3832 64.7609 25.3947 67.1256 23.4939 69.1088C21.5171 71.0921 19.1601 72.0837 16.4229 72.0837C13.6858 72.0837 11.3288 71.0921 9.35194 69.1088C7.37511 67.1256 6.38669 64.7609 6.38669 62.0149C6.31066 59.1926 7.29907 56.8279 9.27591 54.9209Z" fill="#00B1EB"/>
<path d="M33.5302 50.2679H32.6178C32.2376 50.2679 32.0856 50.4204 32.0856 50.8018V67.507C32.0856 69.3377 32.6938 70.8632 33.9864 72.0837C35.2789 73.3805 36.7996 73.9907 38.5483 73.9907C40.3731 73.9907 41.8937 73.3805 43.1863 72.0837C44.4788 70.787 45.0871 69.3377 45.0871 67.507V50.8018C45.0871 50.4204 44.935 50.2679 44.5548 50.2679H43.6425C43.2623 50.2679 43.1102 50.4204 43.1102 50.8018V67.4307C43.1102 68.7274 42.654 69.8716 41.7417 70.787C40.8293 71.7023 39.7648 72.16 38.4723 72.16C37.1797 72.16 36.1153 71.7023 35.2789 70.787C34.3665 69.8716 33.9103 68.7274 33.9103 67.4307V50.8018C34.0624 50.4204 33.9103 50.2679 33.5302 50.2679Z" fill="#00B1EB"/>
<path d="M62.9547 50.2679H49.1168C48.7367 50.2679 48.5846 50.4204 48.5846 50.8018V51.7172C48.5846 52.0986 48.7367 52.2511 49.1168 52.2511H54.8192C54.9713 52.2511 55.0473 52.3274 55.0473 52.48V73.2279C55.0473 73.6093 55.1994 73.7618 55.5796 73.7618H56.4919C56.8721 73.7618 57.0242 73.6093 57.0242 73.2279V52.48C57.0242 52.3274 57.1002 52.2511 57.2523 52.2511H63.0307C63.4109 52.2511 63.5629 52.0986 63.5629 51.7172V50.8018C63.4869 50.4204 63.3348 50.2679 62.9547 50.2679Z" fill="#00B1EB"/>
<path d="M62.5745 80.4744H34.8988H33.2261H5.55036C5.01814 80.4744 4.79004 80.627 4.79004 81.0084V81.5423C4.79004 81.9237 5.01814 82.0763 5.55036 82.0763H33.2261H34.8988H62.5745C63.1067 82.0763 63.3348 81.9237 63.3348 81.5423V81.0084C63.3348 80.627 63.1067 80.4744 62.5745 80.4744Z" fill="#00B1EB"/>
<path d="M5.55036 43.7079H33.2261H34.8988H62.5745C63.1067 43.7079 63.3348 43.5554 63.3348 43.174V42.64C63.3348 42.2586 63.1067 42.1061 62.5745 42.1061H34.8988H33.2261H5.55036C5.01814 42.1061 4.79004 42.2586 4.79004 42.64V43.174C4.79004 43.5554 5.09417 43.7079 5.55036 43.7079Z" fill="#00B1EB"/>
</g>
<defs>
<clipPath id="clip0">
<rect width="151" height="82" fill="white"/>
</clipPath>
</defs>
</svg>
